<svg width="16" height="16" viewBox="0 0 16 16" fill="none" xmlns="http://www.w3.org/2000/svg">
<path d="M6.92707 10.5638C6.58178 10.9105 6.58232 11.4712 6.92828 11.8172C7.27472 12.1636 7.8364 12.1636 8.18283 11.8172L12 8L8.18283 4.18283C7.83639 3.83639 7.27472 3.8364 6.92828 4.18283C6.58232 4.52879 6.58178 5.08953 6.92707 5.43616L8.59556 7.11111H0.88889C0.39797 7.11111 0 7.50908 0 8C0 8.49092 0.397969 8.88889 0.888889 8.88889H8.59556L6.92707 10.5638ZM14.2222 0H1.77778C1.30628 0 0.854097 0.187301 0.520699 0.520699C0.187301 0.854097 0 1.30628 0 1.77778V3.44444C0 3.93536 0.397969 4.33333 0.888889 4.33333C1.37981 4.33333 1.77778 3.93536 1.77778 3.44444V1.77778H14.2222V14.2222H1.77778V12.5556C1.77778 12.0646 1.37981 11.6667 0.888889 11.6667C0.397969 11.6667 0 12.0646 0 12.5556V14.2222C0 14.6937 0.187301 15.1459 0.520699 15.4793C0.854097 15.8127 1.30628 16 1.77778 16H14.2222C15.2 16 16 15.2 16 14.2222V1.77778C16 0.8 15.2 0 14.2222 0Z" fill="#F90640"/>
</svg>
